<?xml version="1.0" encoding="UTF-8"?>
<svg id="_图层_1" data-name="图层 1" xmlns="http://www.w3.org/2000/svg" viewBox="0 0 694.8 141.73">
  <defs>
    <style>
      .cls-1 {
        fill-rule: evenodd;
      }

      .cls-1, .cls-2 {
        fill: #231815;
      }
    </style>
  </defs>
  <path class="cls-1" d="M353.56,38.33c-.69-.87-1.51-1.69-2.33-2.63,.1-.22,.1-.37,.19-.5,.08-.24,.18-.47,.31-.74,3.64-8.09,2.15-15.48-3.95-21.98-4.09-4.37-9.55-6.05-15.61-6.1-11.38-.05-22.72,0-34.1,0-4.5,0-5.64,1.04-5.64,5.33v53.89c0,.74,0,1.46,.1,2.18,.18,1.59,1.09,2.41,2.81,2.6,.42,0,.82,.05,1.24,.05,13.38-.05,26.72-.05,40.09-.05,2.65,0,5.19-.47,7.69-1.32,13.02-4.69,17.81-20.17,9.2-30.73Zm-16.67,26c-2.23,.05-4.45,0-6.63,0-9.84-.14-19.67-.22-29.5-.32-.42,0-.82-.1-1.51-.1V11.98c.59-.05,1.04-.14,1.51-.14,10.05,0,20.07-.03,30.12,0,3.15,0,6.2,.37,8.98,1.91,4.59,2.55,7.05,6.37,7.5,11.34,.37,3.15-.27,6.09-2.12,8.77h-13.23c-1.46,0-2.65,1.19-2.65,2.65s1.19,2.65,2.65,2.65h14.37c2.54,2.42,4.27,5.28,4.9,8.73,1.46,8.33-5.41,16.22-14.39,16.44Z"/>
  <rect class="cls-2" x="177.33" width="4.51" height="140.91"/>
  <path class="cls-2" d="M687.55,42.69c0,.59,.05,.86,0,1.09-.36,1.23-.68,2.5-1.18,3.69-2.55,6.69-7.24,11.7-13.97,14.84-5.83,2.69-11.92,3.23-18.25,1.82-10.7-2.41-18.98-10.47-20.89-21.26-1.59-9.06,1.09-17.02,8.01-23.53,4.82-4.6,10.7-7.19,17.57-7.56,12.24-.59,22.98,6.1,27.45,16.89,.82,2.05,1.09,2.23,3.41,2.28,4.01,0,4.41-.5,2.96-4.1-3.37-8.42-9.51-14.38-18.07-18.16-6.01-2.59-12.33-3.14-18.89-2.37-9.65,1.14-17.2,5.6-22.94,12.88-5.87,7.37-7.56,15.75-6.01,24.76,1.91,10.92,8.6,18.62,18.84,23.58,6.51,3.09,13.47,3.78,20.66,2.69,10.42-1.64,18.21-6.96,23.8-15.29,3.09-4.69,4.37-9.88,4.73-15.34,.14-1.78-.55-2.41-2.46-2.55h-38.91c-.73,0-1.5,.09-2.23,.09-.91,.05-1.41,.55-1.46,1.32-.09,1.37-.32,2.82,.73,4.23h37.09Z"/>
  <path class="cls-2" d="M372.04,11.83h55.76c.73,0,1.5,0,2.28-.09,.77-.14,1.46-.5,1.55-1.32,.36-2.91,.09-3.87-3.05-4.05h-58.58c-.64,0-1.27,0-1.87,.09-1.91,.32-2.59,1-2.78,2.87-.05,.68-.09,1.41-.09,2.14v54.71c0,.64,0,1.32,.09,1.96,.18,1.32,.82,2,2.28,2.14,1.23,.14,2.46,.14,3.69,.14h56.71c2.14-.09,2.55-.46,2.59-2.46,.14-3.5-.18-4.01-3.96-4.01-17.34,.05-34.73,.05-52.11,.05h-2.37c-.41-2.78-.32-23.67,.14-25.12h43.74c1,0,1.96,0,2.91-.05,.46-.05,1.05-.23,1.27-.55,.73-1,.82-2.18,.36-3.32-.36-.96-1.23-1.18-2.18-1.18-.82,0-1.64-.05-2.5-.05h-43.88c-.68-7.37-.27-14.52,0-21.89h0Z"/>
  <path class="cls-2" d="M225.26,11.79h59.17c1.41-3.78,.68-5.1-2.78-5.1h-58.76c-.55,0-1.09,0-1.68,.05-1.59,.14-2.32,.82-2.5,2.37-.09,.77-.09,1.55-.09,2.32v56.48c.14,1.73,.68,2.28,2.5,2.55,.73,.14,1.5,.14,2.28,.14,18.84,0,37.69,0,56.48-.05,.36,0,.73,.05,1.05,0,2.82-.09,3-.27,3.05-2.96,.05-3.14-.14-3.32-3.46-3.32h-52.75c-.82,0-1.59-.05-2.37-.09v-24.99h44.38c.82,0,1.64,0,2.46-.14,1.32-.27,1.87-.91,1.96-2.18,.14-2.14-.68-2.96-2.96-3h-45.97V11.79Z"/>
  <path class="cls-2" d="M557.97,14.7c.14-.05,.27-.09,.36-.14,.55,.55,1.05,1.05,1.55,1.55,10.56,11.11,21.07,22.17,31.63,33.23,6.01,6.28,12.15,12.38,18.07,18.71,1.82,1.91,3.96,2.46,6.51,2.18,2.05-.23,2.91-1.09,3-3.05V9.33c0-.5,.05-1.05-.05-1.55-.05-.36-.23-.82-.5-1-1.18-.68-2.55-.68-3.78-.27-1.27,.36-1.18,1.46-1.23,2.46V61.13c0,.64-.05,1.32-.09,1.96-2.46-2.09-4.51-4.28-6.6-6.46-7.28-7.69-14.56-15.38-21.85-23.12-4.78-5.05-9.56-10.1-14.38-15.2-3.05-3.23-6.14-6.51-9.19-9.79-1.27-1.37-2.73-2.18-4.64-2.46-3.09-.36-4.41,.68-4.55,3.6v.59c0,18.75,0,37.5,.05,56.26,0,.77,0,1.64,.27,2.32,.23,.55,.86,1.23,1.37,1.27,1.14,.09,2.37,.23,3.41-.14,1-.36,.55-1.73,.64-2.5V14.7Z"/>
  <path class="cls-2" d="M445.59,64.08v-2.18c.09-16.61,.18-33.23,.23-49.84,0-.64,.05-1.27-.05-1.91-.23-2.23-1.91-3.6-4.32-3.5-1.68,.05-2.37,.68-2.37,2.28,0,.73,.05,1.5,.05,2.28v53.71c0,.77-.05,1.55,.09,2.32,.23,1.46,1.09,2.46,2.73,2.78,1.18,.18,2.41,.36,3.69,.36,15.02,.05,49.93,.05,64.95,.05,2.46,0,2.82-.46,2.91-2.78,.05-3.23-6.83-3.55-6.83-3.55h-61.08Z"/>
  <path class="cls-1" d="M484.28,37.91c-.05,4.19,.77,7.78,2.41,11.24,5.1,10.79,17.11,17.16,29.81,14.97,12.65-2.18,21.94-12.43,22.44-24.9,.18-5.51-1.41-10.56-4.55-15.29-6.05-9.01-17.84-13.65-28.81-11.2-12.61,2.87-21.3,13.29-21.3,25.17h0Zm-6.65,1.05c-.41-16.29,13.61-31.59,32-32.54,19.57-.96,35.41,13.84,35.87,31.09,.46,17.02-13.79,32.09-32.45,32.82-20.44,.73-35.14-14.97-35.41-31.36h0Z"/>
  <path class="cls-2" d="M139.15,26.03L97.72,0H52.76L12.97,26.63,0,65.58l12.93,43.56,39.84,26.54h45.75l40.91-26.54,12.56-43.83-12.83-39.27Zm-22.35,60.85c-.4,3.1-1.27,6.1-2.73,8.91-1.19,2.23-2.68,4.29-4.51,6.1-1.64,1.73-3.55,3.15-5.64,4.29-2.01,1.09-4.14,1.91-6.37,2.36-1,.19-2.01,.32-3,.47-.87,.08-1.73,.08-2.6,.08-10.69,.05-21.39,.05-32.08,.05h-13.29c-.82,0-1.59-.05-2.41-.27-1.14-.32-1.86-1.09-2.14-2.18-.27-.87-.27-1.73-.27-2.63v-26.09c0-.59,.18-1.04,.63-1.45,.64-.59,1.28-1.19,1.91-1.78,.27-.27,.59-.5,1.06-.59,.59-.05,1.04,.05,1.45,.42,.37,.32,.69,.59,1.01,.9,.35,.32,.72,.69,1.09,1.01,.4,.35,.63,.77,.63,1.32-.03,4.27-.03,8.51-.03,12.8,.03,3.36,.03,6.73,.03,10.1v.35c.19,0,.37,.05,.55,.05,2.83,0,5.7,.05,8.53,.05,2.14,0,4.27,.05,6.45,.05,1.81,.05,3.64,.05,5.51,.1,4.91,.03,9.87,.08,14.79,.13,1.51,0,3,.05,4.51,.05,.72,.05,1.46,.1,2.18,.05,.96,0,1.96,0,2.91-.19,1.09-.13,2.15-.5,3.15-.85,1.73-.69,3.28-1.56,4.74-2.73,1.64-1.36,3.05-2.97,4.14-4.78,.95-1.64,1.69-3.37,2.14-5.14,.22-.96,.42-1.96,.45-2.97,.1-.63,.14-1.27,.14-1.91,0-1.04-.1-2.09-.27-3.08-.59-3.92-2.28-7.34-4.91-10.39-.92-1.04-1.78-2.09-2.7-3.13-.18-.24-.31-.55-.4-.82-.32-.82,0-1.56,.4-2.28,.64-1.04,1.24-2.14,1.73-3.28,.69-1.69,1.19-3.42,1.41-5.23,.14-1.32,.18-2.65,.1-3.97-.27-3.5-1.32-6.78-3.37-9.78-1.32-2.06-3.05-3.79-5.23-5.11-1.64-1-3.42-1.69-5.33-2.09-.95-.18-1.91-.27-2.86-.32-1.73-.1-3.42-.18-5.11-.27-1,0-1.96-.05-2.95-.05-3-.05-5.96-.08-8.96-.08-3.52,.03-7.02,.13-10.52,.18-.82,0-1.64,.05-2.46,.05-1.28,0-2.55,.05-3.82,.05-1.51,.03-2.97,.03-4.46,.08h-.47v15.93c0,4.56,0,9.15-.03,13.71,0,.55-.14,.95-.55,1.32-.69,.59-1.33,1.22-2.01,1.86-.27,.27-.59,.45-1,.55-.59,.1-1.11,0-1.51-.42-.32-.27-.69-.58-1-.9-.37-.32-.69-.64-1.09-.96-.42-.35-.59-.82-.59-1.36v-12.11c0-2.73-.05-5.41-.05-8.14,0-3.64,.05-7.24,.05-10.89,0-.9,.08-1.77,.4-2.59,.55-1.36,1.51-2.28,3-2.6,.51-.13,1.01-.22,1.56-.22h38.58c1.14,.05,2.23,.05,3.37,.1,1.19,.05,2.33,.13,3.52,.35,1.27,.24,2.54,.55,3.77,.96,1.49,.5,2.95,1.19,4.27,2.04,1.59,.92,3,2.06,4.24,3.32,1.32,1.36,2.46,2.83,3.45,4.42,1.24,1.96,2.23,4.06,2.97,6.29,.4,1.27,.72,2.54,.95,3.85,.14,.69,.18,1.41,.22,2.15,.14,1.09,.14,2.14,.05,3.23,0,.77-.1,1.54-.18,2.33-.22,1.45-.55,2.86-.96,4.27-.45,1.46-.95,2.83-1.64,4.19-.05,.08-.08,.18-.13,.32,.08,.13,.18,.22,.27,.31,1.64,1.69,3.05,3.56,4.22,5.6,1.01,1.73,1.78,3.6,2.33,5.56,.32,1.19,.59,2.41,.77,3.64,.1,.5,.1,1,.14,1.49,.03,.87,.03,1.69,.08,2.5,0,1.14-.08,2.28-.22,3.37Z"/>
  <path class="cls-1" d="M214.88,122.71c1.78-2,3.6-4.01,5.37-6.05,1.55-1.78,3.09-3.6,4.6-5.42,.59-.73,1.23-1.05,2.23-1.05,1.73,.05,3.5,.05,5.42,.05-.41,.64-.77,1.14-1.18,1.78h21.98c-.27,.41-.46,.64-.59,.86-6.01,7.33-12.02,14.61-18.07,21.89-2.87,3.41-6.55,5.69-11.33,6.05-.27,.05-.59,.05-.86,.09h-.64c6.46-7.92,12.88-15.7,19.39-23.67-.59-.05-.96-.09-1.27-.09-3.78,.05-7.6,.05-11.38,.05-1.14,0-2,.32-2.73,1.18-1,1.18-2.09,2.32-3.14,3.55-.59,.64-1.27,1-2.23,1-1.87-.05-3.69-.05-5.55-.05v-.18Z"/>
  <path class="cls-1" d="M340.04,121.61h-38.69v14.56h38.69v-14.56Zm0-4.87v-13.97c-.55-.05-1.14-.14-1.64-.14h-13.79c-1.87,0-2.05-.18-1.41-1.82,1.55-4.19,.91-3.32,4.96-3.37,6.01-.05,12.02,0,18.07-.05,.68,0,1.18,0,1.18,.91-.05,11.88-.05,23.76,0,35.64,0,1.41-.41,2.46-1.55,3.32-.96,.77-1.87,1.64-2.73,2.55-1.05,1.09-2.28,1.46-3.82,1.46-4.23-.09-8.47,0-12.74,0-10.47,0-20.94,0-31.41,.05h-1.37c0-.46-.05-.82-.05-1.18v-34.45c0-1,.05-2.05,.27-3.05,.68-3.09,2.78-5.01,6.1-5.19,3.6-.23,7.24-.14,10.83-.14,3.19,0,2.64,.09,3.32-2.46,.46-1.82,.86-3.64,1.37-5.6h-28.4c.27-.55,.46-1,.64-1.37,.5-.77,1.05-1.5,1.46-2.32,.55-1.05,1.37-1.41,2.59-1.41,2.09,.09,4.14,.05,6.24,.05h56.07c-1,1.18-1.91,2.18-2.64,3.32-.96,1.37-2.14,1.73-3.82,1.68-7.46-.09-14.97-.05-22.44-.14-.91,0-1.27,.41-1.46,1.14-1.05,3.5-2.14,7.05-3.23,10.56-.5,1.68-.68,1.87-2.55,1.87h-13.11c-.59,0-1.14,0-1.68,.09-1.09,.14-1.82,.73-1.82,1.73-.05,4.1,0,8.15,0,12.29h38.55Z"/>
  <path class="cls-1" d="M412.23,90.98c-1.73-2.28-3.28-4.41-5.05-6.74,2.37,0,4.51-.05,6.6,0,.32,.05,.64,.36,.86,.59,2,2.46,3.96,4.96,6.05,7.37,.73,.96,.68,1.82,.18,2.78s-1.18,1.78-2.46,1.82c-.82,.05-1.64,0-2.46,0h-18.52v1.23c0,9.42,0,18.8-.05,28.22,0,3.19,.09,6.42-.27,9.6-.41,3.82-2.69,5.64-6.69,5.64-9.24,.05-18.48,0-27.76,0-.14,0-.27-.05-.5-.09v-5.69h7.83v-24.58h-7.15c1.14-1.55,2.09-2.91,3.23-4.19,.27-.32,1.09-.27,1.64-.27q2.32,0,2.32-2.18v-13.84h-8.06c.96-1.5,1.78-2.78,2.64-4.05,.14-.18,.59-.27,.91-.32,6.19,0,12.43,0,18.66,.05,.09,0,.14,.05,.27,.09v4.1h-6.74v15.98h6.46v4.64h-6.51v24.44h10.83c.32,0,.64-.05,1-.05,.86,.05,1.27-.41,1.37-1.18,.05-.36,.09-.68,.09-1.05v-35.36c0-.27-.05-.59-.05-1h-5.46v-6.1h5.46v-5.92h6.51c0,1.78,0,3.5-.05,5.23,0,.55,.14,.82,.82,.82h14.02Z"/>
  <path class="cls-1" d="M233.5,94.4h35.68v-5.6h-35.68v5.6Zm-.09,9.88h30.77c4.23,0,5.14-.96,5.1-4.92,0-1-.36-1.18-1.37-1.18h-33.13c-.27,0-.55-.05-.77,.05-.23,.09-.59,.32-.59,.5v5.55h0Zm-7.19,4.14c-.05-.41-.05-.77-.05-1.09,0-5.19,0-10.38-.05-15.52,0-1.05,.32-1.78,1.14-2.46,1.59-1.32,3.14-2.78,4.82-4.05,.55-.46,1.41-.77,2.09-.77,13.75-.05,27.45-.05,41.19-.09,.96,0,1.18,.32,1.18,1.18-.05,4.92,0,9.83-.05,14.75,0,.91-.05,1.91-.23,2.82-.64,3.19-2.87,5.01-6.28,5.19-1,.05-2.05,.05-3.05,.05h-40.74Z"/>
  <path class="cls-1" d="M235.59,141.41c.41-.55,.86-1.09,1.27-1.59,7.1-8.78,14.16-17.57,21.26-26.4,.77-.96,1.64-1.37,2.91-1.37,5.69,.05,11.33,.05,17.11,.05,.05,.36,.14,.77,.14,1.18,.05,6.83,.14,13.7,.18,20.53,0,.77-.05,1.5-.18,2.23-.64,3.32-2.64,5.19-6.19,5.42-3.19,.23-6.42,.09-9.6,.09-.14,0-.27-.05-.73-.14,2.28-1.73,3.41-4.46,6.69-4.64,1.59-.09,2.37-.96,2.64-2.46,.09-.46,.14-.96,.14-1.41,0-4.55-.05-9.06,0-13.61,.05-.86-.27-1.09-1.14-1.09-2.14,.05-4.28,.05-6.42,.05-.96-.05-1.68,.32-2.28,1.09-4.1,5.05-8.24,10.06-12.33,15.16-2.55,3.14-5.51,5.69-9.65,6.69-1.23,.32-2.46,.36-3.69,.55-.05-.09-.09-.23-.14-.32h0Z"/>
  <path class="cls-1" d="M409.14,113.01c2.09-1.87,3.82-3.96,4.82-6.51,.77-1.91,1.23-3.96,1.82-5.96,.36-1.37,.55-1.55,2.05-1.55,1.55,.05,3.05,0,4.78,0-.14,.59-.18,1.05-.27,1.5-1.09,5.78-3.6,10.92-8.1,15.02-1.23,1.09-2.59,2.14-4.01,3.05-1.09,.68-1.5,1.5-1.5,2.73,.05,3.69,.05,7.33,0,10.97,0,2.82,.86,3.73,3.87,3.87,3.37,.09,6.74,.05,10.06,.05h2.64c-.55,.55-.91,.96-1.32,1.27-.5,.5-1.09,.96-1.5,1.5-1.37,1.96-3.28,2.46-5.64,2.28-3.1-.18-6.19-.09-9.28-.36-3.14-.27-5.37-2.78-5.37-5.73-.05-11.97,0-23.9,0-35.91v-.64h6.65v14.34c.09,.05,.23,.05,.32,.09h0Z"/>
</svg>